<svg width="158" height="165" viewBox="0 0 158 165" fill="none" xmlns="http://www.w3.org/2000/svg">
<path d="M26.6359 64.9767L39.5398 108.515C39.8187 109.457 40.3945 110.284 41.1814 110.872C41.9683 111.461 42.9243 111.779 43.9069 111.78L96.2732 111.924C96.9318 111.925 97.5838 111.792 98.1894 111.534C98.795 111.275 99.3415 110.895 99.7955 110.418C100.25 109.941 100.602 109.376 100.83 108.759C101.059 108.141 101.159 107.483 101.124 106.825C101.057 105.588 100.519 104.423 99.6192 103.57C98.7197 102.717 97.5275 102.241 96.288 102.241H76.2653L60.2294 57.5664H32.1591C31.2612 57.5657 30.3756 57.775 29.5729 58.1774C28.7703 58.5799 28.0728 59.1644 27.5363 59.8843C26.9997 60.6043 26.6388 61.4396 26.4825 62.3238C26.3262 63.208 26.3787 64.1165 26.6359 64.9767Z" fill="#455A64"/>
<path d="M70.9382 105.818C70.9382 105.921 65.5978 106 59.0125 106C52.4272 106 47.0918 105.921 47.0918 105.818C47.0918 105.714 52.4272 105.635 59.0125 105.635C65.5978 105.635 70.9382 105.714 70.9382 105.818Z" fill="#263238"/>
<path d="M30.4894 58.9395C30.5833 58.9099 34.1501 69.3387 38.453 82.2376C42.756 95.1365 46.1598 105.62 46.0659 105.649C45.972 105.679 42.4052 95.2748 38.1023 82.3512C33.7993 69.4276 30.3906 58.9741 30.4894 58.9395Z" fill="#263238"/>
<path d="M68.7597 150.488L65.5684 150.414V111.781H68.7597V150.488Z" fill="#455A64"/>
<path d="M52.3154 150.309H82.0209L68.5638 145.631H65.3724L52.3154 150.309Z" fill="#455A64"/>
<path d="M44.8008 47.5671L49.7163 72.1249L48.8369 90.5272L81.8771 85.0337L80.5827 68.9286L80.5432 55.59L88.6452 71.29L94.9489 59.1025L83.4036 38.1807C81.3015 35.9838 78.7148 34.3089 75.85 33.2899C74.3279 32.7414 72.7294 32.4347 71.1124 32.3809C67.3912 33.5589 63.3969 33.5589 59.6758 32.3809C59.2114 32.4401 58.5692 32.5044 57.754 32.5982H57.6058C54.2075 33.0292 51.0687 34.6407 48.738 37.1511C46.4073 39.6615 45.033 42.9111 44.8551 46.332L44.8008 47.5671Z" fill="#2059EE"/>
<path d="M57.7658 32.6035C57.7658 32.6035 44.1901 32.7073 42.5104 47.0438L42.2832 57.5664L53.9718 57.4676L57.7658 32.6035Z" fill="#2059EE"/>
<path d="M90.1987 51.0461C90.1987 51.1498 79.5179 51.2338 66.3424 51.2338C53.1668 51.2338 42.5059 51.1449 42.5059 51.0461C42.5059 50.9473 53.1817 50.8633 66.3621 50.8633C79.5426 50.8633 90.1987 50.9473 90.1987 51.0461Z" fill="#FAFAFA"/>
<path d="M90.196 53.3225C90.196 53.4213 79.5152 53.5053 66.3397 53.5053C53.1641 53.5053 42.4834 53.4213 42.4834 53.3225C42.4834 53.2237 53.1592 53.1348 66.3397 53.1348C79.5202 53.1348 90.196 53.2188 90.196 53.3225Z" fill="#FAFAFA"/>
<path d="M89.4379 49.1691C89.4379 49.2729 78.9301 49.3568 65.9669 49.3568C53.0038 49.3568 42.5059 49.2679 42.5059 49.1691C42.5059 49.0703 53.0137 48.9863 65.9818 48.9863C78.9498 48.9863 89.4379 49.0654 89.4379 49.1691Z" fill="#FAFAFA"/>
<path d="M80.3783 71.2849C80.2746 71.2849 80.319 65.4703 80.4771 58.307C80.6352 51.1437 80.8476 45.334 80.9464 45.334C81.0452 45.334 81.0057 51.1486 80.8476 58.3119C80.6895 65.4752 80.4771 71.2849 80.3783 71.2849Z" fill="#263238"/>
<path d="M75.7379 61.8594C75.7379 61.8594 82.1601 62.3188 83.3162 64.0182C84.4722 65.7177 86.2358 70.5541 85.5689 70.5887C85.1537 70.6042 84.7457 70.4769 84.4129 70.2281L82.6542 67.1059C82.6542 67.1059 82.9358 70.1194 81.8835 70.1787C80.8312 70.238 75.6045 71.2853 75.6045 71.2853L75.7379 61.8594Z" fill="#FFBE9D"/>
<path d="M42.2854 54.761L42.2607 71.3157C42.31 72.2251 42.5562 73.113 42.9823 73.918C43.4085 74.7229 44.0044 75.4257 44.7288 75.9777C45.4532 76.5297 46.2889 76.9178 47.1781 77.1151C48.0672 77.3124 48.9886 77.3142 49.8786 77.1204L75.7702 71.785L75.7159 61.1685L53.3713 65.4714L53.0749 54.2324L42.2854 54.761Z" fill="#2059EE"/>
<path d="M57.0601 75.7915C57.171 75.7512 57.285 75.7198 57.4009 75.6976L58.389 75.4703L62.1929 74.6651L75.6847 71.8936L75.5513 72.0517C75.5513 68.722 75.5513 65.0366 75.5513 61.1487L75.7686 61.3315L71.2138 62.2059L53.429 65.5899L53.2363 65.6294V65.4714C53.4043 60.5311 53.5476 56.4406 53.6464 53.5358C53.7056 52.1229 53.7501 51.0015 53.7847 50.2012C53.7847 49.8405 53.8193 49.5491 53.8341 49.3267C53.8341 49.2253 53.8457 49.1242 53.8687 49.0254C53.8751 49.1257 53.8751 49.2264 53.8687 49.3267C53.8687 49.554 53.8687 49.8208 53.8687 50.2061C53.8687 51.0064 53.839 52.1278 53.8193 53.5407C53.7501 56.4505 53.6562 60.5509 53.5426 65.4763L53.3549 65.3232L71.1397 61.865L75.6945 60.9955L75.9119 60.9511V61.1734C75.9119 65.0613 75.9119 68.7467 75.9119 72.0764V72.2147L75.7785 72.2395L62.267 74.8578L58.4433 75.5741L57.4306 75.7519C57.3089 75.7785 57.1846 75.7918 57.0601 75.7915Z" fill="#263238"/>
<path d="M71.9055 32.6044C71.9055 32.6044 71.9549 32.6835 72.0092 32.8465C72.0951 33.0848 72.1628 33.3292 72.2118 33.5777C72.3911 34.5032 72.3488 35.4579 72.0883 36.3639C71.6873 37.7077 70.9088 38.9079 69.8454 39.8221C68.551 40.9822 66.8706 41.6181 65.1325 41.6055C64.2686 41.6197 63.4108 41.4594 62.6103 41.1343C61.8098 40.8092 61.0832 40.3259 60.4738 39.7134C59.5062 38.6835 58.8979 37.3681 58.7398 35.9638C58.6237 35.0272 58.7356 34.0764 59.0659 33.1923C59.1534 32.9547 59.2642 32.7263 59.3969 32.5106C59.4858 32.3624 59.5352 32.2883 59.55 32.2932C59.5648 32.2981 59.3919 32.6242 59.1993 33.2417C58.9371 34.1122 58.868 35.0293 58.9967 35.9292C59.1838 37.2625 59.7852 38.5034 60.7159 39.4763C61.2981 40.0485 61.9886 40.4987 62.7469 40.8007C63.5053 41.1027 64.3163 41.2504 65.1325 41.235C66.7812 41.2484 68.3774 40.6559 69.6182 39.5701C70.6519 38.7025 71.422 37.5627 71.8413 36.28C72.1114 35.4113 72.189 34.4942 72.0685 33.5925C71.9845 32.9601 71.866 32.6143 71.9055 32.6044Z" fill="#263238"/>
<path d="M73.1564 72.6634C73.0989 72.1198 73.0989 71.5717 73.1564 71.0282C73.1959 70.0401 73.2453 68.6371 73.2552 67.1057C73.265 65.5742 73.2552 64.186 73.2008 63.1782C73.1452 62.6345 73.1452 62.0866 73.2008 61.543C73.351 62.0706 73.434 62.615 73.4478 63.1634C73.5417 64.1514 73.6158 65.5643 73.6059 67.1155C73.596 68.6668 73.5071 70.05 73.4034 71.0677C73.3857 71.6076 73.3028 72.1434 73.1564 72.6634Z" fill="#FAFAFA"/>
<path d="M71.8172 72.9361C71.7478 72.3972 71.7329 71.8527 71.7727 71.3108C71.7727 70.1696 71.7974 68.8407 71.8122 67.413V63.4954C71.7744 62.9547 71.7943 62.4115 71.8715 61.875C72.0052 62.4014 72.0732 62.9424 72.0741 63.4855C72.1383 64.4736 72.1926 65.8716 72.1827 67.3982C72.1729 68.9247 72.1136 70.3079 72.0345 71.3108C72.0288 71.8594 71.9558 72.4053 71.8172 72.9361Z" fill="#FAFAFA"/>
<path d="M97.7503 138.709L102.641 152.186L109.587 161.725C109.704 161.889 109.786 162.075 109.828 162.271C109.871 162.468 109.873 162.671 109.835 162.868C109.796 163.066 109.718 163.253 109.605 163.419C109.492 163.585 109.347 163.727 109.177 163.835C108.979 163.958 108.754 164.032 108.521 164.052C108.289 164.072 108.055 164.036 107.838 163.949C105.037 162.788 94.7615 158.46 94.4552 157.457C94.1044 156.291 87.4697 141.797 87.4697 141.797L97.7503 138.709Z" fill="#A6ACBE"/>
<g opacity="0.6">
<path d="M109.197 163.837L94.124 156.555L94.3463 157.123C94.533 157.608 94.8822 158.013 95.3344 158.269C96.5694 158.936 100.028 160.7 107.799 163.965C108.021 164.057 108.263 164.094 108.504 164.072C108.744 164.049 108.975 163.969 109.177 163.837H109.197Z" fill="white"/>
</g>
<g opacity="0.6">
<path d="M95.1693 151.179C95.38 151.234 95.5626 151.366 95.682 151.549C95.8015 151.731 95.8494 151.951 95.8165 152.167C95.7678 152.382 95.6378 152.57 95.4536 152.691C95.2695 152.813 95.0455 152.859 94.8284 152.819C94.6035 152.759 94.4089 152.618 94.2828 152.422C94.1567 152.227 94.1081 151.991 94.1467 151.761C94.2213 151.545 94.3764 151.366 94.5797 151.261C94.783 151.156 95.019 151.134 95.2385 151.198" fill="white"/>
</g>
<path d="M103.851 159.188C104.011 158.649 104.273 158.146 104.622 157.705C105.249 157.004 106.06 156.9 106.045 156.811C106.03 156.722 105.832 156.737 105.501 156.811C105.073 156.928 104.687 157.163 104.387 157.49C104.087 157.817 103.886 158.222 103.807 158.659C103.762 158.985 103.817 159.188 103.851 159.188Z" fill="#263238"/>
<path d="M105.5 160.605C105.584 160.64 105.846 160.037 106.458 159.568C106.857 159.317 107.271 159.093 107.698 158.896C107.698 158.812 106.957 158.777 106.266 159.321C105.574 159.864 105.416 160.595 105.5 160.605Z" fill="#263238"/>
<path d="M101.189 157.581C101.278 157.621 101.683 156.697 102.562 155.887C103.442 155.077 104.395 154.741 104.365 154.652C104.336 154.563 103.293 154.77 102.35 155.64C101.406 156.509 101.11 157.571 101.189 157.581Z" fill="#263238"/>
<path d="M99.3639 153.61C99.4281 153.679 100.046 153.082 100.994 152.672C101.943 152.261 102.792 152.177 102.787 152.103C102.783 152.029 101.878 151.935 100.866 152.385C99.853 152.835 99.3194 153.566 99.3639 153.61Z" fill="#263238"/>
<path d="M97.8355 149.692C97.9046 149.751 98.4727 149.02 99.5052 148.67C100.538 148.319 101.432 148.516 101.452 148.427C101.471 148.339 101.249 148.279 100.874 148.22C100.378 148.156 99.8746 148.208 99.4029 148.373C98.9312 148.537 98.5045 148.81 98.1566 149.168C97.8898 149.455 97.791 149.667 97.8355 149.692Z" fill="#263238"/>
<path d="M99.1805 147.933C99.1535 147.758 99.0913 147.59 98.9977 147.439C98.7734 146.994 98.4627 146.597 98.0837 146.273C97.8282 146.006 97.4909 145.833 97.1253 145.779C97.0039 145.774 96.8837 145.806 96.7812 145.872C96.6787 145.937 96.5988 146.032 96.5523 146.145C96.4683 146.364 96.4683 146.607 96.5523 146.827C96.7552 147.272 97.1089 147.631 97.5509 147.841C97.9929 148.05 98.4949 148.097 98.968 147.973C99.4283 147.846 99.8406 147.586 100.152 147.224C100.464 146.862 100.66 146.416 100.717 145.942C100.731 145.823 100.719 145.702 100.682 145.588C100.646 145.474 100.585 145.369 100.504 145.28C100.413 145.2 100.298 145.15 100.177 145.138C100.056 145.125 99.9337 145.151 99.8276 145.211C99.5276 145.412 99.2856 145.688 99.1261 146.011C98.8821 146.444 98.715 146.915 98.6321 147.405C98.5911 147.583 98.5911 147.769 98.6321 147.948C98.78 147.309 99.0231 146.696 99.3534 146.13C99.5043 145.855 99.7196 145.621 99.9808 145.448C100.038 145.413 100.105 145.397 100.172 145.403C100.239 145.409 100.302 145.437 100.351 145.483C100.4 145.544 100.436 145.615 100.456 145.69C100.477 145.766 100.481 145.845 100.47 145.922C100.407 146.33 100.229 146.71 99.9571 147.019C99.6847 147.329 99.3295 147.553 98.9335 147.666C98.5377 147.768 98.1193 147.731 97.7474 147.562C97.3755 147.393 97.0724 147.102 96.8882 146.738C96.814 146.584 96.7999 146.407 96.8487 146.244C96.8735 146.181 96.9173 146.128 96.9741 146.091C97.0308 146.055 97.0976 146.037 97.1649 146.041C97.4707 146.086 97.7552 146.224 97.98 146.436C98.4648 146.861 98.8711 147.368 99.1805 147.933Z" fill="#263238"/>
<path d="M118.404 135.183L117.984 146.136C117.984 146.136 128.971 150.246 129.089 152.276L107.846 152.217L107.787 135.129L118.404 135.183Z" fill="#A6ACBE"/>
<g opacity="0.6">
<path d="M111.407 145.196C111.203 145.258 111.028 145.393 110.917 145.575C110.806 145.757 110.766 145.974 110.804 146.184C110.858 146.393 110.991 146.574 111.175 146.687C111.36 146.801 111.581 146.838 111.792 146.792C112.009 146.725 112.193 146.581 112.31 146.387C112.427 146.192 112.467 145.962 112.425 145.739C112.344 145.53 112.187 145.36 111.985 145.263C111.782 145.166 111.551 145.151 111.338 145.221" fill="white"/>
</g>
<g opacity="0.6">
<path d="M107.825 152.216V150.512L128.258 151.193C128.258 151.193 129.201 151.608 129.093 152.275L107.825 152.216Z" fill="white"/>
</g>
<path d="M118.326 146.026C118.326 146.13 117.807 146.18 117.293 146.52C116.78 146.861 116.508 147.291 116.414 147.247C116.32 147.202 116.473 146.604 117.101 146.214C117.728 145.824 118.351 145.933 118.326 146.026Z" fill="#263238"/>
<path d="M120.56 146.956C120.585 147.06 120.136 147.233 119.78 147.672C119.424 148.112 119.325 148.576 119.222 148.571C119.118 148.566 119.054 147.979 119.503 147.44C119.953 146.902 120.56 146.857 120.56 146.956Z" fill="#263238"/>
<path d="M121.813 149.627C121.719 149.627 121.576 149.133 121.848 148.565C122.119 147.997 122.599 147.77 122.643 147.859C122.688 147.947 122.386 148.249 122.149 148.718C121.912 149.187 121.917 149.617 121.813 149.627Z" fill="#263238"/>
<path d="M118.147 143.527C118.103 143.621 117.629 143.478 117.041 143.527C116.453 143.577 115.993 143.75 115.939 143.661C115.885 143.572 116.329 143.201 117.021 143.167C117.713 143.132 118.197 143.443 118.147 143.527Z" fill="#263238"/>
<g opacity="0.3">
<path d="M118.319 137.352L118.245 139.303L107.796 139.179L107.786 137.421L118.319 137.352Z" fill="black"/>
</g>
<path d="M118.196 141.314C117.847 141.407 117.479 141.407 117.129 141.314C116.746 141.242 116.373 141.126 116.017 140.968C115.806 140.874 115.601 140.765 115.405 140.642C115.287 140.573 115.179 140.488 115.084 140.39C115.016 140.316 114.975 140.221 114.967 140.121C114.959 140.021 114.985 139.921 115.039 139.837C115.091 139.765 115.16 139.706 115.239 139.665C115.317 139.623 115.405 139.601 115.494 139.6C115.629 139.599 115.764 139.619 115.894 139.659C116.121 139.716 116.342 139.792 116.556 139.886C116.918 140.048 117.251 140.267 117.544 140.533C118.038 140.993 118.206 141.378 118.171 141.403C118.137 141.428 117.885 141.111 117.381 140.731C117.09 140.51 116.771 140.329 116.432 140.192C116.236 140.112 116.032 140.049 115.825 140.005C115.598 139.941 115.405 139.941 115.331 140.039C115.257 140.138 115.306 140.094 115.331 140.158C115.401 140.231 115.481 140.294 115.568 140.346C115.749 140.464 115.937 140.571 116.131 140.667C116.461 140.83 116.805 140.962 117.159 141.062C117.511 141.119 117.857 141.203 118.196 141.314Z" fill="#263238"/>
<path d="M118.056 141.461C117.86 141.153 117.763 140.793 117.779 140.429C117.764 140.034 117.814 139.64 117.927 139.263C117.999 139.041 118.09 138.826 118.199 138.62C118.259 138.482 118.352 138.36 118.472 138.268C118.591 138.175 118.732 138.115 118.881 138.092C118.976 138.093 119.068 138.122 119.147 138.175C119.225 138.227 119.288 138.301 119.325 138.388C119.379 138.515 119.416 138.647 119.434 138.783C119.471 139.021 119.471 139.262 119.434 139.5C119.373 139.897 119.215 140.274 118.975 140.596C118.56 141.145 118.125 141.268 118.115 141.234C118.105 141.199 118.446 140.982 118.762 140.453C118.948 140.153 119.064 139.816 119.103 139.465C119.133 139.26 119.133 139.052 119.103 138.848C119.073 138.625 118.989 138.443 118.906 138.462C118.822 138.482 118.619 138.63 118.53 138.813C118.425 138.996 118.336 139.188 118.263 139.386C118.144 139.729 118.074 140.086 118.056 140.448C118.006 141.056 118.115 141.441 118.056 141.461Z" fill="#263238"/>
<path d="M107.81 82.6838C95.2472 83.9831 78.5938 85.6924 78.5938 85.6924L80.8662 106.14C80.8662 106.14 105.33 99.6732 105.157 100.212C104.984 100.75 106.294 143.715 106.294 143.715H121.025L121.302 95.0393C121.328 93.3111 120.987 91.597 120.303 90.01C119.618 88.4229 118.605 86.9989 117.331 85.8316C116.056 84.6643 114.549 83.7803 112.908 83.2377C111.267 82.6951 109.529 82.5064 107.81 82.6838Z" fill="#263238"/>
<path d="M48.5361 90.9323V97.2706C48.5361 101.588 53.4516 106.163 57.7644 106.163H61.104C63.7322 106.163 67.8524 104.246 69.9964 102.705L71.271 101.771L86.6153 149.301C86.6153 149.301 104.168 146.154 104.168 145.601C104.168 145.047 92.2817 106.672 86.7931 88.8623C84.5503 81.5903 76.7596 77.3615 69.5617 79.8267C69.3196 79.9107 69.0677 80.0045 68.8256 80.1033C60.941 83.2552 48.5361 90.9323 48.5361 90.9323Z" fill="#263238"/>
<path d="M104.145 145.598C104.114 145.544 104.089 145.488 104.07 145.43C104.016 145.296 103.952 145.128 103.873 144.936C103.705 144.486 103.463 143.824 103.176 142.959C102.588 141.245 101.783 138.741 100.805 135.643C98.8289 129.453 96.2204 120.872 93.365 111.387C91.9422 106.639 90.5935 102.119 89.3585 97.9986C88.7459 95.9434 88.1679 93.9871 87.6245 92.1543C87.3478 91.2387 87.0843 90.3577 86.834 89.5113C86.6112 88.6954 86.344 87.8922 86.0337 87.1054C85.4778 85.7677 84.6345 84.5685 83.5636 83.5929C82.7511 82.853 81.8823 82.1775 80.965 81.5724C80.2141 81.0783 79.6164 80.6979 79.2063 80.4509L78.7469 80.1595C78.6906 80.1313 78.639 80.0946 78.5938 80.0508C78.6533 80.0687 78.7099 80.0954 78.7617 80.1298L79.2557 80.3867C79.6757 80.614 80.2882 80.9647 81.054 81.4538C81.994 82.0365 82.8831 82.6976 83.7118 83.4299C84.8257 84.4086 85.7068 85.6238 86.2906 86.9868C86.6116 87.7795 86.8887 88.5893 87.1206 89.4125C87.3824 90.2573 87.6492 91.1416 87.9308 92.0555L89.6994 97.8849C90.9394 102 92.3028 106.52 93.7355 111.263C96.5909 120.733 99.1697 129.31 101.067 135.554L103.329 142.9L103.962 144.876C104.026 145.089 104.075 145.257 104.12 145.395C104.164 145.533 104.154 145.598 104.145 145.598Z" fill="#455A64"/>
<path d="M107.856 94.0646C107.945 94.1239 107.11 95.3787 106.413 97.0831C105.717 98.7875 105.4 100.26 105.292 100.24C105.183 100.22 105.341 98.6887 106.072 96.9398C106.803 95.191 107.782 94.0053 107.856 94.0646Z" fill="#455A64"/>
<path d="M110.681 96.0407C110.721 96.1395 109.456 96.6977 108.137 97.7401C106.818 98.7825 105.968 99.8743 105.879 99.81C105.79 99.7458 106.531 98.5256 107.91 97.4535C109.288 96.3815 110.647 95.9517 110.681 96.0407Z" fill="#455A64"/>
<path d="M86.758 149.297C86.6641 149.327 82.5193 136.611 77.5 120.891C72.4808 105.171 68.499 92.4008 68.6076 92.3711C68.7163 92.3415 72.8463 105.058 77.8656 120.782C82.8849 136.507 86.8568 149.268 86.758 149.297Z" fill="#455A64"/>
<path d="M67.9287 75.1496L118.146 75.6337L127.513 49.1641L90.9847 49.4111L82.5073 73.213L67.9287 73.4353V75.1496Z" fill="#455A64"/>
<path d="M106.006 64.68C105.607 64.6242 105.234 64.4513 104.933 64.1832C104.633 63.9151 104.419 63.5638 104.318 63.1739C104.217 62.784 104.234 62.3729 104.367 61.9927C104.5 61.6125 104.742 61.2803 105.064 61.0381C105.386 60.7959 105.772 60.6546 106.175 60.6321C106.577 60.6096 106.976 60.7069 107.323 60.9117C107.67 61.1165 107.948 61.4196 108.123 61.7826C108.297 62.1456 108.36 62.5522 108.303 62.9509C108.227 63.4846 107.943 63.9663 107.512 64.2905C107.082 64.6146 106.54 64.7547 106.006 64.68Z" fill="white"/>
<path d="M63.8307 3.50609C64.3247 1.74243 65.6339 0.877887 67.358 0.290001C68.2263 0.0011461 69.1515 -0.073341 70.0548 0.0729022C70.958 0.219145 71.8125 0.581775 72.5453 1.12984C73.5333 1.87087 74.2743 2.9429 75.4303 3.34306C77.3274 4.00011 79.5505 2.58226 81.3586 3.43198C81.9086 3.68237 82.3537 4.11732 82.6168 4.66144C82.8798 5.20556 82.9441 5.82455 82.7987 6.41114C82.6532 6.99772 82.3071 7.51493 81.8203 7.8731C81.3335 8.23127 80.7367 8.40784 80.1334 8.37219C81.3685 8.82669 81.7538 10.5903 81.0325 11.692C80.3113 12.7937 78.8243 13.2087 77.525 12.9666C76.2379 12.6529 75.0609 11.9935 74.1212 11.0597C73.1331 10.1803 72.2637 9.18239 71.2163 8.38207C70.1999 7.52197 68.9118 7.04944 67.5803 7.04822C65.7969 7.14208 64.2704 8.48582 63.475 10.0864C62.6796 11.6871 62.487 13.5051 62.3981 15.2885C62.3091 17.0719 62.2696 18.88 61.741 20.5844C61.6768 20.7869 61.5829 21.0093 61.3853 21.0784C61.0938 21.1673 60.8468 20.8611 60.7036 20.5844C59.0795 17.5656 58.064 14.2573 57.7147 10.8472C57.5122 8.87115 57.5616 7.00375 58.6484 5.3389C59.7353 3.67405 62.4771 2.45382 63.8208 3.50609" fill="#263238"/>
<path d="M60.3873 11.7717L59.4733 31.7598C59.3202 35.1586 59.7895 40.1878 65.1743 40.1878C69.8478 39.8321 71.2261 35.4649 71.3693 32.2834C71.4336 30.8014 71.4929 29.5268 71.5126 29.3736C71.5126 29.3736 76.6208 29.1266 77.2186 24.1074C77.5051 21.6817 77.7126 16.6328 77.8114 12.0681C77.8699 9.70654 77.039 7.40922 75.4835 5.63138C73.928 3.85354 71.7614 2.72494 69.413 2.46925L68.919 2.41984C63.6478 2.17777 60.491 6.5054 60.3873 11.7717Z" fill="#FFBE9D"/>
<path d="M71.5279 29.309C69.2029 29.1066 66.991 28.2156 65.1748 26.75C65.1748 26.75 66.3358 30.5293 71.3995 30.6133L71.5279 29.309Z" fill="#EB996E"/>
<path d="M75.9876 15.2883C75.97 15.4763 75.8794 15.6498 75.7354 15.7717C75.5913 15.8936 75.4051 15.9542 75.2169 15.9404C75.125 15.938 75.0345 15.917 74.9508 15.8789C74.8671 15.8408 74.792 15.7862 74.7298 15.7185C74.6675 15.6508 74.6196 15.5712 74.5887 15.4846C74.5578 15.398 74.5447 15.306 74.55 15.2142C74.5676 15.0272 74.6574 14.8545 74.8004 14.7327C74.9434 14.6109 75.1283 14.5497 75.3157 14.5621C75.4081 14.564 75.4991 14.5844 75.5834 14.6223C75.6676 14.6601 75.7434 14.7145 75.8061 14.7823C75.8688 14.8501 75.9172 14.9299 75.9484 15.0168C75.9796 15.1038 75.9929 15.1961 75.9876 15.2883Z" fill="#263238"/>
<path d="M76.4679 14.4296C76.3691 14.5136 75.8701 14.0542 75.0945 13.9751C74.3189 13.8961 73.7162 14.2222 73.6421 14.1184C73.568 14.0147 73.7162 13.9109 73.983 13.7578C74.342 13.5621 74.7523 13.481 75.1587 13.5256C75.5614 13.5704 75.9391 13.7436 76.2357 14.0196C76.4531 14.2172 76.5173 14.3951 76.4679 14.4296Z" fill="#263238"/>
<path d="M68.3856 14.7451C68.368 14.933 68.2774 15.1065 68.1333 15.2285C67.9893 15.3504 67.8031 15.411 67.6149 15.3972C67.523 15.394 67.4326 15.3727 67.349 15.3344C67.2653 15.2961 67.1901 15.2416 67.1276 15.1741C67.0652 15.1066 67.0167 15.0274 66.985 14.941C66.9533 14.8547 66.9391 14.7629 66.943 14.671C66.963 14.4841 67.0542 14.312 67.1978 14.1906C67.3413 14.0691 67.526 14.0077 67.7137 14.0189C67.8058 14.0214 67.8965 14.0423 67.9805 14.0804C68.0644 14.1184 68.1399 14.1729 68.2025 14.2406C68.2651 14.3082 68.3135 14.3877 68.345 14.4743C68.3764 14.561 68.3902 14.653 68.3856 14.7451Z" fill="#263238"/>
<path d="M68.8575 13.7663C68.7587 13.8503 68.2598 13.3908 67.4842 13.3069C66.7085 13.2229 66.1058 13.5539 66.0317 13.4501C65.9576 13.3464 66.1058 13.2476 66.3726 13.0944C66.731 12.8972 67.1419 12.8161 67.5484 12.8622C67.9504 12.9094 68.3273 13.0823 68.6253 13.3563C68.8427 13.5489 68.9069 13.7268 68.8575 13.7663Z" fill="#263238"/>
<path d="M71.0527 19.7933C71.4735 19.7078 71.9035 19.6762 72.3323 19.6994C72.5348 19.6994 72.7225 19.6994 72.7719 19.5512C72.808 19.3479 72.7839 19.1384 72.7028 18.9485C72.5644 18.4545 72.4261 17.9308 72.2779 17.3874C71.695 15.1643 71.2899 13.3414 71.3837 13.3167C71.4776 13.292 72.021 15.0803 72.604 17.3034C72.7423 17.8518 72.8757 18.3754 72.9992 18.8744C73.0939 19.1277 73.0939 19.4066 72.9992 19.6599C72.9642 19.7266 72.9144 19.7845 72.8536 19.829C72.7928 19.8735 72.7226 19.9036 72.6484 19.9168C72.5353 19.9311 72.4207 19.9311 72.3076 19.9168C71.8858 19.926 71.4646 19.8845 71.0527 19.7933Z" fill="#263238"/>
<path d="M68.7267 20.0863C68.8502 20.0863 68.7662 20.9311 69.4183 21.6029C70.0704 22.2748 70.9745 22.2748 70.9695 22.3934C70.9646 22.5119 70.7522 22.5366 70.3718 22.507C69.8798 22.4593 69.4201 22.2408 69.0725 21.8895C68.7403 21.5519 68.5525 21.0984 68.5488 20.6248C68.5538 20.274 68.6872 20.0764 68.7267 20.0863Z" fill="#263238"/>
<path d="M69.3845 10.7582C69.2857 10.9608 68.5249 10.7582 67.606 10.7928C66.6871 10.8274 65.9313 10.9756 65.8276 10.7928C65.788 10.699 65.9362 10.5162 66.2524 10.3433C66.6734 10.1354 67.1366 10.0273 67.606 10.0273C68.0755 10.0273 68.5387 10.1354 68.9596 10.3433C69.2758 10.4816 69.429 10.6644 69.3845 10.7582Z" fill="#263238"/>
<path d="M76.4221 12.1657C76.2689 12.3238 75.7552 12.0867 75.1179 12.0076C74.4806 11.9286 73.9223 12.0076 73.8186 11.8051C73.7692 11.7112 73.8729 11.5432 74.1298 11.4C74.4675 11.232 74.8486 11.1716 75.2216 11.2271C75.5908 11.2767 75.9358 11.4388 76.2097 11.6914C76.4369 11.894 76.4913 12.0867 76.4221 12.1657Z" fill="#263238"/>
<path d="M60.398 15.5347C60.314 15.4902 57.0535 14.1465 56.7966 17.5948C56.5397 21.043 60.0572 20.5885 60.067 20.4897C60.0769 20.3909 60.398 15.5347 60.398 15.5347Z" fill="#FFBE9D"/>
<path d="M59.1183 19.1074C59.1183 19.1074 59.0541 19.1469 58.9504 19.1864C58.8026 19.2341 58.6425 19.2253 58.5008 19.1617C58.2886 19.0029 58.1221 18.7909 58.018 18.5472C57.9139 18.3035 57.876 18.0366 57.908 17.7735C57.922 17.4782 58.0013 17.1897 58.1402 16.9287C58.1814 16.8223 58.2479 16.7276 58.334 16.6527C58.4201 16.5778 58.5231 16.525 58.6342 16.4989C58.7045 16.4872 58.7767 16.4999 58.8387 16.535C58.9008 16.57 58.9489 16.6253 58.9751 16.6916C59.0146 16.7904 58.9751 16.8596 59.0047 16.8645C59.0344 16.8695 59.0838 16.8151 59.0689 16.6669C59.0557 16.5804 59.0119 16.5015 58.9454 16.4446C58.9014 16.4049 58.8499 16.3744 58.7939 16.3548C58.7379 16.3353 58.6786 16.3272 58.6194 16.331C58.4754 16.3499 58.3386 16.4052 58.2219 16.4916C58.1052 16.578 58.0125 16.6928 57.9525 16.825C57.7858 17.1127 57.6909 17.4364 57.6758 17.7686C57.6462 18.4651 57.9524 19.142 58.4415 19.3247C58.5319 19.3577 58.6286 19.37 58.7244 19.3605C58.8201 19.3511 58.9126 19.3203 58.9948 19.2704C59.1035 19.1914 59.1282 19.1123 59.1183 19.1074Z" fill="#EB996E"/>
<path d="M78.9863 11.1286C77.8429 11.2944 76.6764 11.1869 75.5825 10.8151C74.4885 10.4433 73.4982 9.81772 72.6925 8.98953C71.581 7.82364 70.7955 6.23289 69.3134 5.59561C68.8055 5.40153 68.2642 5.30989 67.7207 5.326C67.1772 5.34211 66.6423 5.46565 66.1467 5.68947C65.157 6.14569 64.2723 6.80165 63.5482 7.61615C64.2447 10.274 63.2913 13.0504 62.3477 15.6341C62.2716 15.9326 62.0976 16.197 61.8537 16.385C61.414 16.6567 60.8311 16.3455 60.5149 15.9355C60.0619 15.2404 59.8215 14.4284 59.8232 13.5988C59.6576 11.7183 59.8692 9.82372 60.4457 8.02619C61.0318 6.226 62.1306 4.63608 63.6075 3.45156C65.5224 2.03739 67.9126 1.42432 70.2718 1.74224C72.6183 2.06217 74.8037 3.11513 76.5162 4.75083C77.3455 5.46868 77.9823 6.38227 78.3688 7.40866" fill="#263238"/>
<path d="M0.242188 75.3124V80.0352H26.3957V150.414H28.8016V80.0352L138.025 80.5737V150.414H140.386V80.4453L157.242 80.5786V74.9023L0.242188 75.3124Z" fill="#263238"/>
<path d="M16.9831 79.1152L27.2933 86.5404L26.3991 87.4L16 79.5697L16.9831 79.1152Z" fill="#263238"/>
<path d="M150.103 79.8086L138.138 88.3305L139.037 89.1901L151.086 80.2631L150.103 79.8086Z" fill="#263238"/>
<path d="M65.3053 73.5684H38.2725V75.5593H65.3053V73.5684Z" fill="#263238"/>
</svg>
