<svg width="186" height="47" viewBox="0 0 186 47" fill="none" xmlns="http://www.w3.org/2000/svg">
<path d="M23.8203 19.3252H21.3721V27.8379C20.4886 27.3138 19.2158 26.8646 17.5537 26.4902C15.9964 26.1309 14.6488 25.9512 13.5107 25.9512C10.7705 25.9512 8.47201 26.4378 6.61523 27.4111C5.56706 27.9652 5.04297 28.6914 5.04297 29.5898C5.04297 30.7878 5.67188 31.3867 6.92969 31.3867C7.69336 31.3867 8.68913 31.1621 9.91699 30.7129C10.7106 30.4284 11.7288 30.069 12.9717 29.6348C13.4958 29.4551 14.4242 29.3652 15.7568 29.3652C18.3473 29.3652 20.279 30.1663 21.5518 31.7686C22.1657 32.5322 22.4727 33.4307 22.4727 34.4639C22.4727 36.8447 20.9753 38.7165 17.9805 40.0791C16.7376 40.6481 15.5547 40.9701 14.4316 41.0449C15.5098 42.123 16.5355 42.6621 17.5088 42.6621C17.8232 42.6621 18.1602 42.6172 18.5195 42.5273L20.7881 46.2334C20.3239 46.6377 19.373 46.8398 17.9355 46.8398C16.7676 46.8398 15.7793 46.443 14.9707 45.6494C14.5365 45.2152 13.9225 44.3092 13.1289 42.9316C12.4551 41.7487 11.8936 41.1497 11.4443 41.1348C8.67415 41.0599 6.54036 40.5583 5.04297 39.6299C4.09961 39.0459 3.62793 38.2448 3.62793 37.2266C3.62793 35.9688 4.37663 35.3398 5.87402 35.3398C6.42806 35.3398 7.58105 35.7741 9.33301 36.6426C11.0999 37.4961 12.5524 37.9229 13.6904 37.9229C15.9665 37.9229 18.1003 37.3838 20.0918 36.3057C21.0651 35.7816 21.5518 35.1377 21.5518 34.374C21.5518 33.236 20.6533 32.667 18.8564 32.667C18.3024 32.667 16.513 33.0713 13.4883 33.8799C11.7064 34.359 10.6133 34.5986 10.209 34.5986C7.82812 34.5986 5.86654 33.4756 4.32422 31.2295C3.57552 30.1514 3.20117 28.9909 3.20117 27.748C3.1862 25.2174 4.91569 23.5104 8.38965 22.627C9.81217 22.2676 11.1523 22.0879 12.4102 22.0879C13.8477 22.0879 15.8841 22.4398 18.5195 23.1436V19.3252H0.640625V16.6299H23.8203V19.3252ZM45.54 19.3252H30.5811V22.9189C30.641 22.9189 30.7008 22.9489 30.7607 23.0088C30.8206 23.0687 30.873 23.0986 30.918 23.0986C30.7982 23.0986 30.7308 23.0911 30.7158 23.0762C30.7158 23.0013 31.8314 22.7617 34.0625 22.3574C34.8861 22.2077 35.7021 22.1328 36.5107 22.1328C39.8799 22.1328 42.0436 23.0762 43.002 24.9629C43.6458 26.2207 43.9678 28.7588 43.9678 32.5771V41.2246C43.6533 41.1048 42.4629 40.6182 40.3965 39.7646C40.3965 39.2855 40.2992 38.9785 40.1045 38.8438C39.3109 39.3079 38.6595 39.6598 38.1504 39.8994C36.5332 40.6631 34.654 41.0449 32.5127 41.0449C29.5628 41.0449 27.2868 40.1165 25.6846 38.2598C24.9059 37.3613 24.5166 36.3581 24.5166 35.25C24.5166 34.0072 25.1305 32.7718 26.3584 31.5439C28.7393 29.1631 31.6966 27.9727 35.2305 27.9727C37.3717 27.9727 39.0938 28.4668 40.3965 29.4551V27.3887C39.7376 26.5501 39.0938 25.9886 38.4648 25.7041C37.8509 25.4196 37.0049 25.2923 35.9268 25.3223C33.516 25.3672 31.3073 25.8089 29.3008 26.6475C28.4023 27.0218 27.5264 27.3587 26.6729 27.6582V25.9961C26.8675 25.8314 27.152 25.5843 27.5264 25.2549C27.5863 25.18 27.6237 25.1351 27.6387 25.1201V19.3252H23.0342V16.6299H45.54V19.3252ZM40.3965 33.543C40.3965 32.8841 39.6104 32.2926 38.0381 31.7686C36.7354 31.3343 35.6497 31.1172 34.7812 31.1172C31.6217 31.1172 29.0911 32.2552 27.1895 34.5312C26.4258 35.4447 26.0439 36.1934 26.0439 36.7773C26.3584 37.8704 27.5938 38.417 29.75 38.417C32.5352 38.417 35.0807 37.7207 37.3867 36.3281C39.3932 35.1152 40.3965 34.1868 40.3965 33.543ZM66.4062 19.3252H51.6719V25.1201C52.5553 24.611 54.0003 23.9447 56.0068 23.1211C56.8304 22.8965 57.8262 22.7842 58.9941 22.7842C60.5964 22.7842 62.0264 23.2259 63.2842 24.1094C64.6917 25.0827 65.3955 26.3405 65.3955 27.8828C65.3955 29.9642 64.2051 31.4766 61.8242 32.4199C60.8359 32.8092 59.9824 33.0039 59.2637 33.0039L64.4746 39.3379L61.6221 41.4043L53.6035 31.8809L55.0859 28.8037C55.8796 29.0283 56.7106 29.1406 57.5791 29.1406C58.8519 29.1406 59.8926 28.8411 60.7012 28.2422C61.6146 27.5833 62.0713 26.64 62.0713 25.4121C62.0713 24.2142 61.2178 23.6152 59.5107 23.6152C58.3128 23.6152 57.04 24.1917 55.6924 25.3447C54.734 26.1683 53.8581 27.1641 53.0645 28.332C52.1061 29.7396 51.627 30.945 51.627 31.9482V41.3594L47.7637 39.6299V19.3252H44.9111V16.6299H47.6289C47.6289 12.3324 46.8503 8.76107 45.293 5.91602C44.9935 5.36198 44.417 4.53092 43.5635 3.42285C42.7549 2.3597 42.1934 1.51367 41.8789 0.884766H46.4385C47.3219 1.70833 48.2354 3.06348 49.1787 4.9502C50.7809 8.15462 51.582 12.0479 51.582 16.6299H66.4062V19.3252ZM88.957 19.3252H86.5088V27.8379C85.6253 27.3138 84.3525 26.8646 82.6904 26.4902C81.1331 26.1309 79.7855 25.9512 78.6475 25.9512C75.9072 25.9512 73.6087 26.4378 71.752 27.4111C70.7038 27.9652 70.1797 28.6914 70.1797 29.5898C70.1797 30.7878 70.8086 31.3867 72.0664 31.3867C72.8301 31.3867 73.8258 31.1621 75.0537 30.7129C75.8473 30.4284 76.8656 30.069 78.1084 29.6348C78.6325 29.4551 79.5609 29.3652 80.8936 29.3652C83.484 29.3652 85.4157 30.1663 86.6885 31.7686C87.3024 32.5322 87.6094 33.4307 87.6094 34.4639C87.6094 36.8447 86.112 38.7165 83.1172 40.0791C81.8743 40.6481 80.6914 40.9701 79.5684 41.0449C80.6465 42.123 81.6722 42.6621 82.6455 42.6621C82.96 42.6621 83.2969 42.6172 83.6562 42.5273L85.9248 46.2334C85.4606 46.6377 84.5098 46.8398 83.0723 46.8398C81.9043 46.8398 80.916 46.443 80.1074 45.6494C79.6732 45.2152 79.0592 44.3092 78.2656 42.9316C77.5918 41.7487 77.0303 41.1497 76.5811 41.1348C73.8109 41.0599 71.6771 40.5583 70.1797 39.6299C69.2363 39.0459 68.7646 38.2448 68.7646 37.2266C68.7646 35.9688 69.5133 35.3398 71.0107 35.3398C71.5648 35.3398 72.7178 35.7741 74.4697 36.6426C76.2367 37.4961 77.6891 37.9229 78.8271 37.9229C81.1032 37.9229 83.237 37.3838 85.2285 36.3057C86.2018 35.7816 86.6885 35.1377 86.6885 34.374C86.6885 33.236 85.79 32.667 83.9932 32.667C83.4391 32.667 81.6497 33.0713 78.625 33.8799C76.8431 34.359 75.75 34.5986 75.3457 34.5986C72.9648 34.5986 71.0033 33.4756 69.4609 31.2295C68.7122 30.1514 68.3379 28.9909 68.3379 27.748C68.3229 25.2174 70.0524 23.5104 73.5264 22.627C74.9489 22.2676 76.2891 22.0879 77.5469 22.0879C78.9844 22.0879 81.0208 22.4398 83.6562 23.1436V19.3252H65.7773V16.6299H88.957V19.3252ZM113.395 19.3252H95.2686V26.0859C96.9007 24.304 98.4131 23.1585 99.8057 22.6494C100.584 22.3649 101.46 22.2227 102.434 22.2227C106.087 22.2227 108.82 24.0195 110.632 27.6133C111.425 29.1855 111.822 30.7354 111.822 32.2627C111.822 35.0479 110.677 37.5635 108.386 39.8096C107.622 40.5583 107.053 41.0749 106.679 41.3594L102.995 39.1582C103.924 38.1849 104.979 36.987 106.162 35.5645C107.495 33.9622 108.169 31.9408 108.184 29.5C108.199 28.0475 107.869 26.8346 107.195 25.8613C106.432 24.7233 105.354 24.1693 103.961 24.1992C102.673 24.2292 101.296 24.7158 99.8281 25.6592C98.5104 26.4977 97.4173 27.501 96.5488 28.6689C95.6055 29.9268 95.1338 31.1396 95.1338 32.3076V41.2246L90.9336 38.9785V19.3252H88.4629V16.6299H90.9336C90.9336 12.2275 89.7881 8.46908 87.4971 5.35449C86.1195 3.48275 84.8467 2.16504 83.6787 1.40137L88.2158 1.35645C90.7314 2.73405 92.7305 5.70638 94.2129 10.2734C94.9167 12.4447 95.2686 14.5635 95.2686 16.6299H113.395V19.3252ZM147.4 19.3252H139.988L140.033 22.4697C142.07 23.2184 143.537 24.1992 144.436 25.4121C145.364 26.6699 145.828 28.3695 145.828 30.5107C145.828 33.5954 144.593 36.2458 142.122 38.4619C141.658 38.8812 140.947 39.4277 139.988 40.1016C138.805 40.9401 138.057 41.3594 137.742 41.3594C137.428 41.3594 135.983 40.0417 133.407 37.4062C134.994 37.3164 136.649 36.8073 138.371 35.8789C140.003 35.0104 141.388 33.9473 142.526 32.6895C143.754 31.3418 144.368 29.9118 144.368 28.3994C144.368 26.902 143.537 25.8613 141.875 25.2773C141.066 24.9928 140.265 24.8656 139.472 24.8955C134.62 25.0902 131.648 27.9128 130.555 33.3633L125.95 31.4766C125.95 30.2188 126.437 28.8112 127.41 27.2539C127.77 26.6849 127.957 26.363 127.972 26.2881C127.972 25.5843 126.961 25.2324 124.939 25.2324C122.349 25.2324 120.335 26.3704 118.897 28.6465C118.269 29.6497 117.954 30.653 117.954 31.6562C117.954 33.7526 118.92 35.7367 120.852 37.6084L125.119 41.7412C122.514 40.8428 120.095 39.54 117.864 37.833C114.884 35.557 113.395 33.1162 113.395 30.5107C113.395 27.2165 115.057 24.7607 118.381 23.1436C119.833 22.4398 121.331 22.0879 122.873 22.0879C124.85 22.0879 126.826 22.6794 128.803 23.8623C129.551 24.3115 129.986 24.5511 130.105 24.5811C131.243 24.0869 132.494 23.5553 133.856 22.9863C134.575 22.6868 135.301 22.4847 136.035 22.3799L136.08 19.3252H112.721V16.6299H147.4V19.3252ZM155.554 19.3252H146.906V16.6299H155.554V19.3252ZM153.981 39.4727C153.772 39.6823 153.285 40.0267 152.521 40.5059C151.758 40.985 151.279 41.2246 151.084 41.2246C151.009 41.2246 150.62 40.9551 149.916 40.416C149.272 39.9219 148.868 39.5924 148.703 39.4277L151.174 37.4512C151.354 37.4512 152.289 38.125 153.981 39.4727Z" fill="#1E1E1E"/>
<path d="M177.116 19.3252H162.157V22.9189C162.217 22.9189 162.277 22.9489 162.337 23.0088C162.397 23.0687 162.449 23.0986 162.494 23.0986C162.374 23.0986 162.307 23.0911 162.292 23.0762C162.292 23.0013 163.408 22.7617 165.639 22.3574C166.462 22.2077 167.278 22.1328 168.087 22.1328C171.456 22.1328 173.62 23.0762 174.578 24.9629C175.222 26.2207 175.544 28.7588 175.544 32.5771V41.2246C175.229 41.1048 174.039 40.6182 171.973 39.7646C171.973 39.2855 171.875 38.9785 171.681 38.8438C170.887 39.3079 170.236 39.6598 169.727 39.8994C168.109 40.6631 166.23 41.0449 164.089 41.0449C161.139 41.0449 158.863 40.1165 157.261 38.2598C156.482 37.3613 156.093 36.3581 156.093 35.25C156.093 34.0072 156.707 32.7718 157.935 31.5439C160.315 29.1631 163.273 27.9727 166.807 27.9727C168.948 27.9727 170.67 28.4668 171.973 29.4551V27.3887C171.314 26.5501 170.67 25.9886 170.041 25.7041C169.427 25.4196 168.581 25.2923 167.503 25.3223C165.092 25.3672 162.883 25.8089 160.877 26.6475C159.979 27.0218 159.103 27.3587 158.249 27.6582V25.9961C158.444 25.8314 158.728 25.5843 159.103 25.2549C159.162 25.18 159.2 25.1351 159.215 25.1201V19.3252H154.61V16.6299H177.116V19.3252ZM171.973 33.543C171.973 32.8841 171.187 32.2926 169.614 31.7686C168.312 31.3343 167.226 31.1172 166.357 31.1172C163.198 31.1172 160.667 32.2552 158.766 34.5312C158.002 35.4447 157.62 36.1934 157.62 36.7773C157.935 37.8704 159.17 38.417 161.326 38.417C164.111 38.417 166.657 37.7207 168.963 36.3281C170.969 35.1152 171.973 34.1868 171.973 33.543ZM184.641 14.2715C184.581 14.3314 184.409 14.3613 184.124 14.3613C183.884 14.3613 183.675 14.3314 183.495 14.2715L182.035 11.2842C181.436 10.3408 180.62 9.70443 179.587 9.375C178.569 9.0306 177.94 8.65625 177.7 8.25195C177.476 7.56315 177.041 6.50749 176.397 5.08496V4.56836H177.273C178.426 4.92773 179.362 5.26465 180.081 5.5791C181.264 6.10319 182.058 6.70964 182.462 7.39844C182.687 7.77279 183.031 8.73112 183.495 10.2734C183.929 11.7259 184.296 12.7367 184.596 13.3057C184.626 13.5752 184.641 13.8971 184.641 14.2715ZM185.966 19.3252H176.824V16.6299H185.966V19.3252ZM183.405 41.5166L179.632 39.4277V22.0879H183.405V41.5166Z" fill="black"/>
</svg>
